<svg width="1200" height="780" viewBox="0 0 1200 780" fill="none" xmlns="http://www.w3.org/2000/svg">
  <rect width="1200" height="780" rx="32" fill="#101010"/>
  <rect x="34" y="34" width="1132" height="712" rx="28" fill="#141414" stroke="rgba(255,255,255,0.1)"/>
  <rect x="96" y="110" width="1008" height="88" rx="24" fill="#181818" stroke="rgba(255,255,255,0.08)"/>
  <rect x="136" y="138" width="470" height="32" rx="16" fill="url(#search)"/>
  <text x="170" y="160" fill="white" font-family="Arial, sans-serif" font-size="26">Find the moment where the speaker opens the demo dashboard</text>
  <circle cx="1032" cy="154" r="20" stroke="white" stroke-width="5"/>
  <path d="M1048 170L1070 192" stroke="white" stroke-width="5" stroke-linecap="round"/>
  <rect x="96" y="236" width="482" height="418" rx="28" fill="#171717" stroke="rgba(255,255,255,0.08)"/>
  <rect x="622" y="236" width="482" height="418" rx="28" fill="url(#player)" stroke="rgba(255,255,255,0.08)"/>
  <rect x="136" y="292" width="402" height="84" rx="20" fill="#1C1C1C"/>
  <rect x="136" y="394" width="402" height="84" rx="20" fill="#1C1C1C"/>
  <rect x="136" y="496" width="402" height="84" rx="20" fill="url(#hit)" stroke="rgba(33,212,255,0.18)"/>
  <text x="170" y="348" fill="rgba(255,255,255,0.72)" font-family="Arial, sans-serif" font-size="28">00:42  Talking head setup</text>
  <text x="170" y="450" fill="rgba(255,255,255,0.72)" font-family="Arial, sans-serif" font-size="28">01:24  Product overview</text>
  <text x="170" y="552" fill="white" font-family="Arial, sans-serif" font-size="30">02:08  Opens dashboard on-screen</text>
  <text x="660" y="314" fill="white" font-family="Arial, sans-serif" font-size="42">Jump straight to the right scene.</text>
  <rect x="660" y="376" width="250" height="22" rx="11" fill="#67E8FF"/>
  <rect x="926" y="376" width="102" height="22" rx="11" fill="#18ACFF"/>
  <rect x="660" y="418" width="166" height="22" rx="11" fill="#F59E0B"/>
  <rect x="842" y="418" width="240" height="22" rx="11" fill="#149BFF"/>
  <defs>
    <linearGradient id="search" x1="371" y1="138" x2="371" y2="170" gradientUnits="userSpaceOnUse">
      <stop stop-color="#20313F"/>
      <stop offset="1" stop-color="#1A252F"/>
    </linearGradient>
    <linearGradient id="player" x1="863" y1="236" x2="863" y2="654" gradientUnits="userSpaceOnUse">
      <stop stop-color="#122033"/>
      <stop offset="1" stop-color="#091019"/>
    </linearGradient>
    <linearGradient id="hit" x1="337" y1="496" x2="337" y2="580" gradientUnits="userSpaceOnUse">
      <stop stop-color="#2AE0FF" stop-opacity="0.22"/>
      <stop offset="1" stop-color="#2AE0FF" stop-opacity="0.08"/>
    </linearGradient>
  </defs>
</svg>
